<svg width="24" height="24" viewBox="0 0 24 24" fill="none" xmlns="http://www.w3.org/2000/svg">
<g clip-path="url(#clip0_139_367)">
<path d="M12.3999 22C6.8769 22 2.3999 17.523 2.3999 12C2.3999 6.477 6.8769 2 12.3999 2C17.9229 2 22.3999 6.477 22.3999 12C22.3999 17.523 17.9229 22 12.3999 22ZM12.3999 20C14.5216 20 16.5565 19.1571 18.0568 17.6569C19.557 16.1566 20.3999 14.1217 20.3999 12C20.3999 9.87827 19.557 7.84344 18.0568 6.34315C16.5565 4.84285 14.5216 4 12.3999 4C10.2782 4 8.24334 4.84285 6.74305 6.34315C5.24276 7.84344 4.3999 9.87827 4.3999 12C4.3999 14.1217 5.24276 16.1566 6.74305 17.6569C8.24334 19.1571 10.2782 20 12.3999 20ZM12.3999 7C12.6651 7 12.9195 7.10536 13.107 7.29289C13.2945 7.48043 13.3999 7.73478 13.3999 8V13C13.3999 13.2652 13.2945 13.5196 13.107 13.7071C12.9195 13.8946 12.6651 14 12.3999 14C12.1347 14 11.8803 13.8946 11.6928 13.7071C11.5053 13.5196 11.3999 13.2652 11.3999 13V8C11.3999 7.73478 11.5053 7.48043 11.6928 7.29289C11.8803 7.10536 12.1347 7 12.3999 7ZM12.3999 17C12.1347 17 11.8803 16.8946 11.6928 16.7071C11.5053 16.5196 11.3999 16.2652 11.3999 16C11.3999 15.7348 11.5053 15.4804 11.6928 15.2929C11.8803 15.1054 12.1347 15 12.3999 15C12.6651 15 12.9195 15.1054 13.107 15.2929C13.2945 15.4804 13.3999 15.7348 13.3999 16C13.3999 16.2652 13.2945 16.5196 13.107 16.7071C12.9195 16.8946 12.6651 17 12.3999 17Z" fill="#101828"/>
</g>
<defs>
<clipPath id="clip0_139_367">
<rect width="24" height="24" fill="white"/>
</clipPath>
</defs>
</svg>
