<svg width="24" height="24" viewBox="0 0 24 24" fill="none" xmlns="http://www.w3.org/2000/svg">
<g clip-path="url(#clip0_139_341)">
<path d="M3.19995 1.5H1.69995V21C1.69995 21.3978 1.85799 21.7794 2.13929 22.0607C2.4206 22.342 2.80213 22.5 3.19995 22.5H22.7V21H3.19995V1.5Z" fill="#101828"/>
<path d="M22.7 6.75H17.45V8.25H20.1425L14.45 13.9425L11.2325 10.7175C11.1627 10.6472 11.0798 10.5914 10.9884 10.5533C10.897 10.5153 10.799 10.4957 10.7 10.4957C10.6009 10.4957 10.5029 10.5153 10.4115 10.5533C10.3201 10.5914 10.2372 10.6472 10.1675 10.7175L4.69995 16.1925L5.75745 17.25L10.7 12.3075L13.9175 15.5325C13.9872 15.6028 14.0701 15.6586 14.1615 15.6967C14.2529 15.7347 14.3509 15.7543 14.45 15.7543C14.549 15.7543 14.647 15.7347 14.7384 15.6967C14.8298 15.6586 14.9127 15.6028 14.9825 15.5325L21.2 9.3075V12H22.7V6.75Z" fill="#101828"/>
</g>
<defs>
<clipPath id="clip0_139_341">
<rect width="24" height="24" fill="white"/>
</clipPath>
</defs>
</svg>
