<svg width="24" height="24" viewBox="0 0 24 24" fill="none" xmlns="http://www.w3.org/2000/svg">
<g clip-path="url(#clip0_139_175)">
<g clip-path="url(#clip1_139_175)">
<path fill-rule="evenodd" clip-rule="evenodd" d="M1.7998 6C1.7998 5.20435 2.11588 4.44129 2.67848 3.87868C3.24109 3.31607 4.00416 3 4.7998 3H18.7998C19.5955 3 20.3585 3.31607 20.9211 3.87868C21.4837 4.44129 21.7998 5.20435 21.7998 6V16C21.7998 16.7956 21.4837 17.5587 20.9211 18.1213C20.3585 18.6839 19.5955 19 18.7998 19H11.1328L7.7998 21.5C6.9758 22.118 5.7998 21.53 5.7998 20.5V19H4.7998C4.00416 19 3.24109 18.6839 2.67848 18.1213C2.11588 17.5587 1.7998 16.7956 1.7998 16V6ZM4.7998 5C4.53459 5 4.28023 5.10536 4.0927 5.29289C3.90516 5.48043 3.7998 5.73478 3.7998 6V16C3.7998 16.2652 3.90516 16.5196 4.0927 16.7071C4.28023 16.8946 4.53459 17 4.7998 17H6.2998C6.69763 17 7.07916 17.158 7.36047 17.4393C7.64177 17.7206 7.7998 18.1022 7.7998 18.5V19L9.93281 17.4C10.279 17.1404 10.7001 17 11.1328 17H18.7998C19.065 17 19.3194 16.8946 19.5069 16.7071C19.6944 16.5196 19.7998 16.2652 19.7998 16V6C19.7998 5.73478 19.6944 5.48043 19.5069 5.29289C19.3194 5.10536 19.065 5 18.7998 5H4.7998Z" fill="#101828"/>
</g>
</g>
<defs>
<clipPath id="clip0_139_175">
<rect width="24" height="24" fill="white"/>
</clipPath>
<clipPath id="clip1_139_175">
<rect width="24" height="24" fill="white" transform="translate(-0.200195)"/>
</clipPath>
</defs>
</svg>
