<svg width="14" height="14" viewBox="0 0 14 14" fill="none" xmlns="http://www.w3.org/2000/svg">
<path d="M13.5036 12.7376L11.212 10.4971L11.1583 10.4155C11.0584 10.316 10.9219 10.26 10.7794 10.26C10.6368 10.26 10.5003 10.316 10.4004 10.4155C8.45291 12.2021 5.45202 12.2993 3.38792 10.6424C1.32383 8.98554 0.837031 6.08883 2.25038 3.87336C3.66372 1.6579 6.53863 0.81115 8.96848 1.89468C11.3983 2.9782 12.6291 5.65578 11.8446 8.15165C11.7881 8.33196 11.8343 8.52804 11.9657 8.66603C12.0972 8.80402 12.294 8.86296 12.4819 8.82064C12.6699 8.77833 12.8205 8.64119 12.877 8.46088C13.8148 5.49901 12.3984 2.31162 9.544 0.960624C6.68958 -0.390374 3.25381 0.500468 1.45929 3.05686C-0.335235 5.61326 0.050038 9.06802 2.36587 11.1863C4.68171 13.3045 8.23311 13.4505 10.7227 11.5299L12.7517 13.5136C12.9612 13.7176 13.3 13.7176 13.5096 13.5136C13.7189 13.3067 13.7189 12.9736 13.5096 12.7668L13.5036 12.7376Z" fill="#667085"/>
</svg>
